<svg width="161" height="179" viewBox="0 0 161 179" fill="none" xmlns="http://www.w3.org/2000/svg">
<path d="M80.3253 0V83.6364H61.3764L31.1562 39.6946H30.6662V83.6364H7.96023V0H27.2358L56.9659 43.7784H57.6193V0H80.3253Z" fill="#4ade80"/>
<path d="M91.0657 83.6364V0H151.343V18.2955H113.772V32.6705H148.239V50.9659H113.772V65.3409H151.179V83.6364H91.0657Z" fill="#4ade80"/>
<path d="M26.2997 95L40.0213 119.339H40.6747L54.5597 95H79.8793L54.8864 136.818L80.8594 178.636H54.8864L40.6747 153.807H40.0213L25.8097 178.636H0L25.6463 136.818L0.816761 95H26.2997Z" fill="#4ade80"/>
<path d="M87.3833 113.295V95H160.075V113.295H134.919V178.636H112.54V113.295H87.3833Z" fill="#4ade80"/>
</svg>
